<?xml version="1.0" encoding="utf-8"?>
<!-- Svg Vector Icons : http://www.onlinewebfonts.com/icon -->
<!DOCTYPE svg PUBLIC "-//W3C//DTD SVG 1.1//EN" "http://www.w3.org/Graphics/SVG/1.1/DTD/svg11.dtd">
<svg version="1.1" xmlns="http://www.w3.org/2000/svg" xmlns:xlink="http://www.w3.org/1999/xlink" x="0px" y="0px" viewBox="0 0 1000 1000" enable-background="new 0 0 1000 1000" xml:space="preserve">
<metadata> Svg Vector Icons : http://www.onlinewebfonts.com/icon </metadata>
<g><g transform="translate(0.000000,512.000000) scale(0.100000,-0.100000)"><path d="M3989.6,4999.6c-28.8-17.3-61.4-49.9-72.9-71c-9.6-23-476-1343.6-1034.6-2934.8C2323.5,400.6,1862.8-904.6,1859-910.4c-3.8-3.8-326.3,122.8-717.9,280.2C751.5-470.8,409.8-342.2,381-342.2c-138.2,0-190-69.1-236.1-326.3c-42.2-234.2-59.5-692.9-30.7-877.2c51.8-328.2,147.8-596.9,303.3-840.7c113.2-176.6,401.2-458.8,581.6-570.1c257.2-161.2,2309.1-1021.2,3416.6-1435.7c1002-372.4,1241.9-428,1691-389.6l205.4,19.2l168.9,111.3c322.5,211.1,525.9,472.2,794.6,1017.3c197.7,403.1,355.1,798.5,750.5,1906c518.3,1443.4,1827.3,5228.6,1869.5,5403.2c17.3,67.2-19.2,155.5-80.6,195.8c-42.2,28.8-5643.2,1161.3-5735.3,1161.3C4058.7,5032.2,4018.4,5016.9,3989.6,4999.6z M6863,4082.1c1414.6-282.2,2574-514.4,2577.8-518.3c15.4-13.4-1180.4-3470.4-1758.2-5086.5c-424.2-1186.2-612.3-1656.5-811.9-2042.3c-224.6-431.9-406.9-654.5-623.8-762c-97.9-48-109.4-49.9-224.6-28.8c-769.7,134.4-1167,788.9-1142.1,1884.9c5.8,264.9,5.8,266.8-44.2,316.7c-36.5,36.5-426.1,201.5-1322.5,564.3c-698.7,284.1-1274.5,518.3-1278.3,524c-3.8,3.8,439.6,1282.2,986.6,2842.7c906,2589.3,996.2,2833.1,1030.8,2825.4C4273.7,4596.5,5448.3,4362.3,6863,4082.1z M2567.3-1630.2l1925.2-775.5v-255.3c0-531.7,124.8-1005.8,357-1368.6c46.1-73,80.6-132.5,78.7-132.5c-15.4,0-746.7,276.4-1078.7,408.8c-199.6,78.7-706.4,286-1122.9,460.7c-1529.8,641.1-1577.8,666.1-1817.7,923.3c-343.6,366.6-474.1,858-397.3,1483.7l9.6,82.5l61.4-25C617.1-841.3,1509.7-1202.1,2567.3-1630.2z"/><path d="M4624.9,2865.2c-113.2-115.2-53.7-282.2,115.2-328.2c92.1-24.9,145.9-13.4,207.3,42.2c59.5,55.7,72.9,134.4,32.6,216.9C4916.7,2930.4,4726.6,2966.9,4624.9,2865.2z"/><path d="M5805.4,2510.1c-101.7-101.7-76.8-243.8,53.7-305.2c34.6-15.4,435.7-130.5,892.5-253.4c583.5-159.3,842.6-222.7,879.1-213.1c163.2,40.3,195.8,278.3,48,357c-53.7,28.8-1710.2,479.9-1762,479.9C5889.8,2575.3,5843.8,2548.5,5805.4,2510.1z"/><path d="M4045.2,1308.5c-69.1-53.7-86.4-159.3-42.2-241.9c25-48,57.6-71,124.8-94.1c113.2-38.4,176.6-23,241.8,53.7c67.2,80.6,55.7,191.9-30.7,268.7C4264.1,1362.2,4122,1368,4045.2,1308.5z"/><path d="M5193.1,1003.3c-130.5-53.8-155.5-247.6-42.2-330.1c23-17.3,426.1-159.3,896.4-314.8c660.3-220.7,867.6-282.2,909.8-270.6c84.4,21.1,145.9,99.8,145.9,188.1c0,144-17.3,151.6-950.1,462.6c-464.5,155.5-861.8,282.2-882.9,280.2C5248.7,1018.7,5214.2,1011,5193.1,1003.3z"/><path d="M3494.4-117.6c-40.3-13.4-80.6-48-103.7-88.3c-34.6-59.5-34.6-71-9.6-142c32.6-96,120.9-153.6,234.2-153.6c63.3,0,88.3,11.5,132.5,61.4c103.7,115.2,53.7,266.8-105.6,326.3C3576.9-88.8,3578.8-88.8,3494.4-117.6z"/><path d="M4557.7-534.2c-61.4-25-103.7-96-103.7-174.7c0-143.9-1.9-142,961.7-462.6l882.9-293.7l71,38.4c132.5,71,144,266.8,21.1,332.1C6314-1054.3,4678.7-515,4636.4-516.9C4615.3-516.9,4578.8-524.6,4557.7-534.2z"/></g></g>
</svg>